<svg width="15" height="25" viewBox="0 0 15 25" fill="none" xmlns="http://www.w3.org/2000/svg">
<g clip-path="url(#clip0_38_1496)">
<path d="M10.776 24.1133C11.8548 25.1884 13.0963 25.2936 14.0039 24.3873C14.9114 23.4821 14.8062 22.2406 13.7286 21.1655C10.9741 18.4146 8.21957 15.6637 5.46014 12.9178C5.33538 12.793 5.16781 12.711 4.92073 12.5422C5.21307 12.2903 5.36963 12.1729 5.50785 12.0359C8.24159 9.31068 10.9741 6.58305 13.7042 3.85543C13.8656 3.69519 14.0259 3.53129 14.1665 3.35271C15.0766 2.19072 14.5323 0.507658 13.1134 0.0917872C12.2107 -0.172413 11.4976 0.160284 10.8665 0.792652C7.53828 4.12085 4.20397 7.44415 0.872101 10.7699C-0.294786 11.9343 -0.289894 13.0707 0.883108 14.2424C4.18073 17.5327 7.47834 20.823 10.776 24.1133Z" fill="white"/>
</g>
<defs>
<clipPath id="clip0_38_1496">
<rect width="14.6179" height="25" fill="white" transform="translate(14.6179 25) rotate(-180)"/>
</clipPath>
</defs>
</svg>
