<svg width="15" height="25" viewBox="0 0 15 25" fill="none" xmlns="http://www.w3.org/2000/svg">
<g clip-path="url(#clip0_38_1494)">
<path d="M3.84193 0.886733C2.76311 -0.188417 1.52161 -0.293608 0.614032 0.612747C-0.293547 1.51788 -0.188356 2.75938 0.889241 3.83453C3.64378 6.5854 6.39832 9.33627 9.15775 12.0822C9.28251 12.207 9.45008 12.289 9.69716 12.4578C9.40482 12.7097 9.24826 12.8271 9.11005 12.9641C6.3763 15.6893 3.64378 18.4169 0.913704 21.1446C0.752248 21.3048 0.592015 21.4687 0.451352 21.6473C-0.458672 22.8093 0.0856301 24.4923 1.50449 24.9082C2.40717 25.1724 3.12027 24.8397 3.75142 24.2073C7.07961 20.8792 10.4139 17.5558 13.7458 14.2301C14.9127 13.0657 14.9078 11.9293 13.7348 10.7576C10.4372 7.46729 7.13955 4.17701 3.84193 0.886733Z" fill="white"/>
</g>
<defs>
<clipPath id="clip0_38_1494">
<rect width="14.6179" height="25" fill="white"/>
</clipPath>
</defs>
</svg>
