<svg xmlns="http://www.w3.org/2000/svg" width="177" height="40" viewBox="0 0 177 40" fill="none">
  <g clip-path="url(#clip0_303_160)">
    <path d="M4.66565 17.4333C4.56526 18.3074 6.25753 18.6648 7.13235 18.9642C7.65342 19.0221 8.05975 19.4664 8.05975 20.0025V23.0352H12.7063V16.8055C10.7081 17.4816 8.70033 18.1191 7.8781 18.2301C5.98983 18.5054 5.33013 17.9163 4.66565 17.4333Z" fill="white"/>
    <path d="M35.619 14.3861C35.7959 14.2799 35.9536 14.1495 36.097 14.0143C36.2357 13.8694 36.3695 13.7148 36.4412 13.5217C36.2596 13.8887 35.9106 14.1157 35.576 14.304C35.227 14.4923 34.8589 14.6324 34.4812 14.7338C33.7211 14.9511 32.9419 15.0525 32.1532 15.1105C31.7564 15.1588 31.3835 15.1394 31.0059 15.0815C30.8194 15.0332 30.633 15.0042 30.4466 14.9415C30.3605 14.9125 30.2649 14.8835 30.1741 14.8545L29.9064 14.7435C29.1845 14.4489 28.5057 14.0432 27.8603 13.5941C27.215 13.145 26.5935 12.6524 25.996 12.1309C25.3889 11.619 24.8104 11.0781 24.2416 10.5276C23.6679 9.96741 23.1086 9.4024 22.5636 8.8229C22.0091 8.2434 21.4785 7.64941 20.9526 7.05542C21.8992 8.33998 22.9365 9.56659 24.0504 10.7159C25.1642 11.8653 26.3545 12.9567 27.6739 13.8742C28.3384 14.3281 29.0316 14.7531 29.7916 15.0477L30.0785 15.1539C30.1741 15.1877 30.2697 15.2119 30.3701 15.2505C30.5613 15.3133 30.7668 15.3471 30.9724 15.3857C31.374 15.4437 31.8042 15.4437 32.1914 15.3857C32.9897 15.3036 33.7833 15.1636 34.5434 14.898C34.9163 14.7676 35.2796 14.5986 35.619 14.3861Z" fill="white"/>
    <path d="M18.7154 11.0926L17.2478 12.5799L18.3616 12.6765L23.1564 13.1256L19.8005 9.99634L18.7154 11.0926Z" fill="white"/>
    <path d="M19.8005 0C8.86291 0 0 8.95328 0 20.0024C0 28.8398 5.67436 36.3395 13.5429 38.9859V33.8428L9.80943 28.9074L8.65257 28.8977C8.52828 28.9074 7.60088 28.9992 6.99854 28.4631C6.65435 28.1589 6.48704 27.7194 6.48704 27.1689C6.48704 26.3141 6.64001 25.8022 6.9603 25.6042C7.05591 25.5511 7.14673 25.527 7.228 25.5222V25.1986H6.48704V23.7354H6.30538V23.0351H7.02244V19.3988C6.02333 19.3022 4.11595 18.6696 3.39888 17.4333C2.94952 16.6558 2.83479 15.6996 2.83479 14.9125C2.83479 14.0529 2.97342 13.3913 2.97342 13.3913C2.97342 13.3913 3.00211 13.4492 3.08815 13.5313C3.30327 13.7824 3.5662 13.9901 3.85302 14.1639C4.19243 14.3571 4.56531 14.502 4.94774 14.5889C5.33495 14.6758 5.72695 14.7145 6.12372 14.7C6.22411 14.7 6.31494 14.7 6.42489 14.6807C6.52528 14.6614 6.62089 14.6372 6.72128 14.6179C6.91249 14.5648 7.09415 14.4923 7.28059 14.4247C8.00721 14.135 8.70993 13.7921 9.4031 13.4396C10.0963 13.087 10.7799 12.7055 11.4635 12.324C11.779 12.1454 12.0897 11.9715 12.4004 11.788L12.3478 12.1598C12.2857 12.5993 12.2953 13.0243 12.3574 13.4492C12.4195 13.879 12.5391 14.2992 12.7303 14.6807C12.9167 15.0767 13.1844 15.4147 13.4569 15.7286C13.6433 15.9411 13.8489 16.1487 14.0449 16.3419C13.9971 16.3612 13.9445 16.3757 13.9015 16.395H14.0975C14.1453 16.4433 14.1979 16.4916 14.2409 16.5399V23.0351H14.7811L25.5657 24.4211V20.3453C25.5657 20.099 25.7569 19.8913 25.9959 19.8913H26.3401C26.5792 19.8913 26.7704 20.099 26.7704 20.3453V24.5805L27.3297 24.6529V23.0738C27.3297 22.8226 27.5209 22.615 27.7599 22.615C27.9989 22.615 28.1902 22.8226 28.1902 23.0738V24.7157C28.1902 24.735 28.1854 24.7447 28.1854 24.764L28.3766 24.7881V20.635H28.6347C31.8472 19.6112 33.2048 18.3653 33.2048 18.3653C33.2048 18.3653 28.5535 18.602 25.3506 18.602C23.0942 18.602 18.7297 17.7713 16.3634 17.2836C15.7085 17.1484 15.0918 16.8924 14.5373 16.5496L14.4656 16.4771C14.3939 16.4143 14.3317 16.3419 14.2696 16.2695C14.0497 16.0377 13.8345 15.8107 13.629 15.5741C13.3661 15.2602 13.1318 14.9318 12.9741 14.5648C12.7064 13.9708 12.6012 13.2995 12.6251 12.6524C12.6729 12.7104 12.7111 12.7635 12.7637 12.8214C12.9167 12.9856 13.0792 13.1498 13.2896 13.2754C13.3422 13.3092 13.3995 13.3382 13.4569 13.3623C13.519 13.3816 13.5716 13.4058 13.6672 13.4106C13.8298 13.4106 13.9493 13.3575 14.0592 13.3044C14.2696 13.1981 14.4512 13.0677 14.6233 12.9277C15.3117 12.3723 15.8949 11.7252 16.4733 11.0829C17.047 10.431 17.592 9.76458 18.1274 9.07883C18.5528 8.51865 18.9783 7.95847 19.3894 7.38863C19.3798 7.3838 19.3655 7.37897 19.3559 7.36448C19.3464 7.3838 19.3273 7.39828 19.3081 7.42243C19.1791 7.49487 19.05 7.56731 18.9209 7.63974C17.7115 8.32549 16.5116 9.0064 15.3165 9.7018L13.2991 10.8705C12.6299 11.2616 11.9511 11.6431 11.277 12.0246C9.92416 12.7828 8.5713 13.5506 7.17064 14.1881C6.98898 14.2654 6.81689 14.333 6.63523 14.3957C6.54918 14.4247 6.45835 14.4537 6.37231 14.473C6.31016 14.4875 6.21455 14.4923 6.11894 14.4972C5.74129 14.5213 5.35886 14.502 4.9812 14.444C4.37409 14.3378 3.77175 14.0915 3.28893 13.6907C3.65224 13.9321 4.38365 14.2316 5.80822 14.2171C7.37619 14.1929 16.3921 8.56211 19.0165 6.90088C18.9353 6.71254 18.8827 6.49523 18.8827 6.26343C18.8827 5.53906 19.3607 4.95473 19.9439 4.95473C20.5319 4.95473 21.0052 5.53906 21.0052 6.26343C21.0052 6.48557 20.9574 6.69806 20.8761 6.88639H21.0912C21.0912 6.88639 28.0228 15.2167 32.2009 14.7869C36.3742 14.3571 36.7662 12.889 36.7662 12.889V14.4875C36.7662 16.5061 35.8293 18.4426 34.1848 19.5968C33.6829 19.9493 33.1283 20.2197 32.5595 20.326C30.8433 20.6495 29.3853 20.7026 28.7447 20.7171V24.4452C29.3183 24.5563 30.1836 25.0054 30.1836 26.1113C30.1836 27.5359 29.2658 27.676 29.1271 27.6953V30.7715C29.1271 31.3944 28.6252 31.9015 28.0085 31.9015C27.7121 31.9015 27.4349 31.7856 27.2341 31.5876L25.102 31.6214C24.9204 31.9788 24.2511 33.2585 23.6918 33.8718C23.1086 34.5092 21.3685 35.5234 20.9526 35.7648V39.9662C31.35 39.3674 39.601 30.6604 39.601 20.0024C39.5963 8.95328 30.7333 0 19.8005 0ZM15.4838 9.94326C16.6263 9.2382 17.7497 8.50416 18.8588 7.75081C19.0117 7.64457 19.1647 7.54316 19.3177 7.43692C18.8827 7.94398 18.4477 8.45587 18.0079 8.95811C17.439 9.61004 16.8701 10.2572 16.2821 10.8849C15.6941 11.5127 15.0966 12.1357 14.4417 12.6621C14.2887 12.778 14.1309 12.8939 13.9732 12.976C13.9588 12.9856 13.9445 12.9905 13.9302 13.0001C13.8489 13.0388 13.7581 13.0677 13.7007 13.0677C13.6864 13.0677 13.6386 13.0581 13.6003 13.0388C13.5621 13.0243 13.5238 13.0049 13.4808 12.9808C13.1605 12.7828 12.8832 12.4351 12.6538 12.1019L12.4339 11.7783C13.4665 11.1795 14.4799 10.5662 15.4838 9.94326Z" fill="white"/>
    <path d="M20.6896 35.5138C20.7135 35.5041 22.8217 34.3113 23.4288 33.64C24.0455 32.9688 24.8295 31.3897 24.8343 31.38L24.8821 31.2834L26.995 31.2399C26.9233 31.0999 26.8898 30.9405 26.8898 30.7667V30.6218L21.5501 29.9409V30.8826L18.8731 34.5431C18.7392 34.7266 18.505 34.8039 18.2899 34.7363L17.4772 34.4707C17.2429 34.3982 17.1569 34.1133 17.3003 33.9105L19.9965 30.3514V29.7429L14.7141 29.0668L14.8001 28.3762L19.9965 29.0378V25.2663C19.9965 25.0296 20.2689 24.8993 20.4506 25.0538L21.4497 25.8796C21.5119 25.9327 21.5501 26.0148 21.5501 26.0969V29.2358L26.8898 29.9216V26.7343C26.8898 26.5508 27.0189 26.3915 27.2006 26.3577L28.6682 26.0534C28.9072 26.0051 29.1271 26.1886 29.1271 26.4349V27.3428C29.2657 27.3187 29.8346 27.1786 29.8346 26.1114C29.8346 25.9423 29.8107 25.7926 29.7629 25.6623L14.7332 23.7306H14.5516C14.5563 23.7596 14.5611 23.7837 14.5611 23.8127V29.0572C14.5611 29.1055 14.5707 29.1441 14.585 29.1827L16.2725 33.4469C16.3442 33.6159 16.263 33.8139 16.0909 33.8767L15.7371 34.0167C15.5698 34.0892 15.3834 34.0071 15.3116 33.8332L13.5572 29.3807C13.5381 29.3469 13.5333 29.3035 13.5333 29.2648V23.8127C13.5333 23.7837 13.5333 23.7596 13.5429 23.7306H6.83118V24.8461H7.57214V26.0148L7.32356 25.8844C7.31878 25.8796 7.22795 25.8409 7.13712 25.9037C7.05108 25.9617 6.83596 26.2031 6.83596 27.169C6.83596 27.6229 6.96981 27.9706 7.23273 28.1976C7.7538 28.6612 8.61906 28.5501 8.6334 28.5501H8.64296L9.98626 28.5598L13.8919 33.727V39.0873C15.7562 39.6813 17.7449 40.0001 19.8052 40.0001C20.073 40.0001 20.3407 39.9952 20.6084 39.9807V35.5572L20.6896 35.5138ZM21.2155 32.0271C21.6935 31.7325 22.1763 31.0178 22.4488 30.5445C22.5397 30.3852 22.7356 30.3272 22.8982 30.4093H22.903C23.0798 30.5011 23.1468 30.7184 23.0464 30.8922C22.7739 31.3703 22.2241 32.2203 21.5644 32.6211C21.3684 32.7418 21.1199 32.6356 21.0577 32.4183C21.0147 32.2686 21.0816 32.114 21.2155 32.0271ZM21.0051 33.7463C22.4345 32.9736 23.3667 31.3365 23.7013 30.6701C23.7826 30.5059 23.9738 30.4383 24.1411 30.5107L24.3036 30.5832C24.4853 30.6604 24.5666 30.8778 24.4757 31.0564C24.1028 31.8098 23.0607 33.6304 21.3971 34.5238C21.2203 34.6204 21.0004 34.5383 20.9191 34.3548L20.8474 34.1906C20.7805 34.0215 20.8474 33.8284 21.0051 33.7463ZM22.2624 28.0334L26.2254 28.5742C26.4166 28.5984 26.5504 28.7722 26.5265 28.9654C26.5026 29.1586 26.3305 29.2938 26.1393 29.2696L22.1763 28.7288C21.9851 28.7046 21.8513 28.5308 21.8752 28.3376C21.8991 28.1445 22.0712 28.0092 22.2624 28.0334ZM15.5076 27.169L19.2412 27.5988C19.4324 27.6229 19.5662 27.7968 19.5423 27.9899C19.5184 28.1831 19.3463 28.3183 19.1551 28.2942L15.4216 27.8644C15.2304 27.8402 15.0965 27.6664 15.1204 27.4732C15.1443 27.28 15.3212 27.1448 15.5076 27.169ZM11.406 25.0296C11.406 24.6723 11.6929 24.3825 12.0466 24.3825H12.4052C12.7589 24.3825 13.0457 24.6723 13.0457 25.0296V27.6374C13.0457 27.9947 12.7589 28.2845 12.4052 28.2845H12.0466C11.6929 28.2845 11.406 27.9947 11.406 27.6374V25.0296ZM9.95279 27.9706H8.8772C8.52823 27.9706 8.24618 27.6857 8.24618 27.3331V25.0151C8.24618 24.6626 8.52823 24.3777 8.8772 24.3777H9.95279C10.3018 24.3777 10.5838 24.6626 10.5838 25.0151V27.3331C10.5838 27.6857 10.3018 27.9706 9.95279 27.9706ZM13.868 32.9253C13.868 33.0799 13.672 33.1475 13.5764 33.0219L10.5312 28.8399C10.4547 28.7336 10.5312 28.5791 10.6603 28.5791H11.2913C11.3439 28.5791 11.3917 28.6032 11.4204 28.6467L13.8345 31.9595C13.8536 31.9885 13.868 32.0223 13.868 32.0561V32.9253ZM13.868 30.9164C13.868 31.0951 13.6433 31.1675 13.5381 31.0275L11.9462 28.8785C11.8554 28.7578 11.9415 28.5839 12.0944 28.5839H12.4673C12.5247 28.5839 12.5772 28.6129 12.6155 28.6563L13.8345 30.3031C13.8584 30.3369 13.8727 30.3755 13.8727 30.4142V30.9164H13.868Z" fill="white"/>
    <path d="M59.588 16.9116C59.588 19.8912 58.1348 21.1468 54.3821 21.1468H50.8972V23.7546C50.8972 24.5948 51.1027 24.8266 51.8533 24.8266H52.2453V26.1064H45.4188V24.8266H45.8347C46.5613 24.8266 46.7669 24.5948 46.7669 23.7546V15.3518C46.7669 14.5115 46.5613 14.2797 45.8108 14.2797H45.4188V13H54.3773C58.1348 13 59.588 14.0962 59.588 16.9116ZM52.9671 19.5677C54.7502 19.5677 55.4338 18.824 55.4338 16.9116C55.4338 15.1876 54.7502 14.6081 52.9671 14.6081H50.8924V19.5677H52.9671Z" fill="white"/>
    <path d="M59.9561 24.8266H60.372C61.0986 24.8266 61.3041 24.5948 61.3041 23.7546V15.3518C61.3041 14.5115 61.0986 14.2797 60.348 14.2797H59.9561V13H66.7825V14.2797H66.3666C65.64 14.2797 65.4344 14.5115 65.4344 15.3518V19.331H70.3487V15.3518C70.3487 14.5115 70.1431 14.2797 69.3926 14.2797H69.0006V13H75.8223V14.2797H75.4064C74.6798 14.2797 74.4742 14.5115 74.4742 15.3518V23.7546C74.4742 24.5948 74.6798 24.8266 75.4303 24.8266H75.8223V26.1064H69.0006V24.8266H69.4165C70.1431 24.8266 70.3487 24.5948 70.3487 23.7546V20.9585H65.4344V23.7546C65.4344 24.5948 65.64 24.8266 66.3905 24.8266H66.7825V26.1064H59.9561V24.8266Z" fill="white"/>
    <path d="M91.1962 17.6601V21.4558C91.1962 24.6914 89.5565 26.1111 85.8039 26.1111H82.0082C78.2747 26.1111 76.635 24.6914 76.635 21.4558V17.6601C76.635 14.4245 78.2747 13.0048 82.0082 13.0048H85.8039C89.5565 12.9999 91.1962 14.4197 91.1962 17.6601ZM83.9156 24.6865C86.2819 24.6624 87.0707 23.9863 87.0707 21.9629V17.1675C87.0707 15.1199 86.2819 14.4197 83.9156 14.4439C81.5493 14.4197 80.7605 15.1876 80.7605 17.4476V21.9629C80.7605 23.9911 81.5493 24.6672 83.9156 24.6865Z" fill="white"/>
    <path d="M99.5333 24.8267H99.9492C100.676 24.8267 100.881 24.5949 100.881 23.7546V14.6082H100.093C98.6633 14.6082 98.5581 15.0283 98.0418 16.3563L97.2339 18.4522L95.948 18.3121L96.7798 13.0049H109.061L109.955 18.3121L108.669 18.4522L107.775 16.3563C107.215 15.0283 107.091 14.6082 105.743 14.6082H105.016V23.7594C105.016 24.5997 105.222 24.8315 105.973 24.8315H106.365V26.1112H99.5381V24.8267H99.5333Z" fill="white"/>
    <path d="M110.213 24.8266H110.629C111.355 24.8266 111.561 24.5948 111.561 23.7546V15.3518C111.561 14.5115 111.355 14.2797 110.605 14.2797H110.208V13H117.034V14.2797H116.619C115.892 14.2797 115.686 14.5115 115.686 15.3518V19.331H120.601V15.3518C120.601 14.5115 120.395 14.2797 119.645 14.2797H119.253V13H126.079V14.2797H125.663C124.936 14.2797 124.731 14.5115 124.731 15.3518V23.7546C124.731 24.5948 124.937 24.8266 125.687 24.8266H126.079V26.1064H119.253V24.8266H119.668C120.395 24.8266 120.601 24.5948 120.601 23.7546V20.9585H115.686V23.7546C115.686 24.5948 115.892 24.8266 116.642 24.8266H117.034V26.1064H110.208V24.8266H110.213Z" fill="white"/>
    <path d="M141.367 14.2797H140.951C140.224 14.2797 140.019 14.5115 140.019 15.3518V21.451C140.019 24.8025 138.503 26.1064 134.956 26.1064H133.34C129.588 26.1064 127.886 24.8025 127.886 21.451V15.3518C127.886 14.5115 127.68 14.2797 126.93 14.2797H126.538V13H134.316V14.2797H133.613C132.37 14.2797 132.016 14.5115 132.016 15.3518V21.2675C132.016 23.4117 132.991 24.1988 135.396 24.1988C137.366 24.1988 138.259 23.4069 138.259 21.2675V15.3518C138.259 14.5115 137.968 14.2797 136.93 14.2797H136.371V13H141.371V14.2797H141.367Z" fill="white"/>
    <path d="M160.947 17.5394V21.3351C160.947 24.8991 158.376 26.1064 153.772 26.1064H146.032V24.8266H146.448C147.175 24.8266 147.381 24.5948 147.381 23.7546V15.3518C147.381 14.5115 147.175 14.2797 146.424 14.2797H146.032V13H153.772C158.376 13 160.947 14.1204 160.947 17.5394ZM153.896 24.5272C156.22 24.5272 156.798 23.2716 156.798 19.4518C156.798 15.7961 156.22 14.584 153.896 14.584H151.511V24.5272H153.896Z" fill="white"/>
    <path d="M177 17.6601V21.4558C177 24.6914 175.36 26.1111 171.608 26.1111H167.812C164.078 26.1111 162.439 24.6914 162.439 21.4558V17.6601C162.439 14.4245 164.078 13.0048 167.812 13.0048H171.608C175.365 12.9999 177 14.4197 177 17.6601ZM169.719 24.6865C172.086 24.6624 172.874 23.9863 172.874 21.9629V17.1675C172.874 15.1199 172.086 14.4197 169.719 14.4439C167.353 14.4197 166.564 15.1876 166.564 17.4476V21.9629C166.569 23.9911 167.358 24.6672 169.719 24.6865Z" fill="white"/>
  </g>
  <defs>
    <clipPath id="clip0_303_160">
      <rect width="177" height="40" fill="white"/>
    </clipPath>
  </defs>
</svg>